<svg width="512" height="160" viewBox="0 0 512 160" xmlns="http://www.w3.org/2000/svg">
    <rect width="512" height="160" fill="#ffffff"/>
    <rect x="20"  y="70" width="18" height="40" fill="#FF5A5F"/>
    <rect x="55"  y="40" width="18" height="100" fill="#FFB400"/>
    <rect x="90"  y="85" width="18" height="30" fill="#00C853"/>
    <rect x="125" y="20" width="18" height="120" fill="#00BCD4"/>
    <rect x="160" y="55" width="18" height="55" fill="#7C4DFF"/>
    <rect x="195" y="10" width="18" height="140" fill="#2979FF"/>
    <rect x="230" y="45" width="18" height="70" fill="#FF4081"/>
    <rect x="265" y="65" width="18" height="35" fill="#FF7043"/>
    <rect x="300" y="25" width="18" height="105" fill="#9CCC65"/>
    <rect x="335" y="75" width="18" height="25" fill="#26A69A"/>
    <rect x="370" y="35" width="18" height="95" fill="#AB47BC"/>
    <rect x="405" y="50" width="18" height="65" fill="#42A5F5"/>
    <rect x="440" y="80" width="18" height="20" fill="#FFA726"/>
    <rect x="475" y="30" width="18" height="110" fill="#EC407A"/>
</svg>